# xmcd
#
# Track frame offsets:
# 150
# 15196
# 29529
# 43787
# 52030
# 63200
# 73048
# 88564
# 100509
# 110542
# 122450
# 133254
# 147101
# 158410
# 167046
# 179604
# 191544
# 202149
#
# Disc length: 2941 seconds
#
#
# Revision: 0
# Processed by: cddbd v1.5.2PL0 Copyright (c) Steve Scherf et al.
# Submitted via: FreeRIP 2.951 
#
DISCID=f50b7b12
DTITLE=The Best of Country
DYEAR=2008
DGENRE=Country
TTITLE0=Eddie Rabitt - Drivin my life away
TTITLE1=David Speegle - Give her back her faith in me
TTITLE2=Inger Nordstrom - Sylvie Marie
TTITLE3=Willie Nelson - Things to remember
TTITLE4=Frankie Laine - 15:10 to Yuma
TTITLE5=Faron Young - Alone with you
TTITLE6=Eddie Rabbitt - I´m there
TTITLE7=Kenny Rogers - Me and Bobby Mc Gee
TTITLE8=David Speegle - Pick up the pieces
TTITLE9=Willie Nelson - End of understanding
TTITLE10=Ace Cannon - Blue eyes crying in the wind
TTITLE11=Allisons - Roses are red, people are blue
TTITLE12=Faron Young - going steady
TTITLE13=Waylon Jennings - Abilene
TTITLE14=Johnny Lee - This time
TTITLE15=Patsy Cline - Walking after midnight
TTITLE16=Stonewall Jackson - Waterloo
TTITLE17=Alan borders - Way cross georgia blues
EXTD=
EXTT0=
EXTT1=
EXTT2=
EXTT3=
EXTT4=
EXTT5=
EXTT6=
EXTT7=
EXTT8=
EXTT9=
EXTT10=
EXTT11=
EXTT12=
EXTT13=
EXTT14=
EXTT15=
EXTT16=
EXTT17=
PLAYORDER=
